<svg xmlns="http://www.w3.org/2000/svg" viewBox="0 0 1600 900" role="img" aria-label="ACT ART CENTER blog illustration: ACT의 6가지 핵심 프로세스">
  <rect width="1600" height="900" rx="64" fill="#F8F4EC"/>
  <rect x="70" y="70" width="1460" height="760" rx="72" fill="#E8C46B"/>
  <circle cx="1245" cy="190" r="98" fill="#2E6B5F" opacity="0.74"/>
  <circle cx="315" cy="190" r="58" fill="#fff" opacity="0.40"/>
  <text x="145" y="120" font-family="Pretendard, Arial, sans-serif" font-size="34" font-weight="700" fill="#111" opacity="0.58">ACT ART CENTER</text>
  <polygon points="380,145 560,250 560,460 380,565 200,460 200,250" fill="#fff" opacity="0.58" stroke="#111" stroke-width="8"/>
<circle cx="380" cy="355" r="62" fill="#2E6B5F" opacity="0.72"/>
<g fill="#2E6B5F" opacity="0.55"><circle cx="380" cy="200" r="25"/><circle cx="515" cy="280" r="25"/><circle cx="515" cy="430" r="25"/><circle cx="380" cy="510" r="25"/><circle cx="245" cy="430" r="25"/><circle cx="245" cy="280" r="25"/></g><path d="M110 735 C360 660 585 805 820 720 C1045 640 1265 780 1490 700" fill="none" stroke="#0E5C50" stroke-width="16" stroke-linecap="round" opacity="0.16"/>
  <image href="/characters/twins-together.png" x="790" y="175" width="520" height="520" preserveAspectRatio="xMidYMid meet"/>
</svg>
