<svg xmlns="http://www.w3.org/2000/svg" viewBox="0 0 1600 900" role="img" aria-label="ACT ART CENTER blog illustration: anxiety-art-therapy">
  <rect width="1600" height="900" rx="64" fill="#F8F4EC"/>
  <rect x="70" y="70" width="1460" height="760" rx="70" fill="#EAD9CF"/>
  <circle cx="1220" cy="190" r="92" fill="#7788A8" opacity="0.75"/>
  <circle cx="340" cy="210" r="58" fill="#fff" opacity="0.42"/>
  <path d="M210 600 C395 260 545 720 720 420 C900 120 1035 770 1390 330" fill="none" stroke="#0E5C50" stroke-width="16" stroke-linecap="round" opacity="0.36"/>
<g transform="translate(800 410) scale(1.25)" stroke="#111" stroke-width="8" stroke-linecap="round" stroke-linejoin="round"><path d="M-58 -92 C-82 -45 -80 20 -55 58 H62 C84 5 78 -58 46 -92 C18 -124 -30 -126 -58 -92 Z" fill="#111" stroke="none"/><circle cx="0" cy="-68" r="43" fill="#fff"/><circle cx="-14" cy="-72" r="4" fill="#111" stroke="none"/><circle cx="17" cy="-72" r="4" fill="#111" stroke="none"/><path d="M-10 -50 C2 -42 15 -45 23 -54" fill="none" stroke-width="5"/><path d="M-52 10 Q0 -15 52 10 L67 145 Q0 170 -67 145 Z" fill="#fff"/><path d="M-46 148 L-58 290 M46 148 L58 290"/><path d="M-68 292 H-18 M18 292 H68"/><path d="M-55 36 C-125 88 -150 150 -205 122 M55 36 C120 80 150 145 205 112"/><path d="M-205 122 C-100 55 20 215 205 112" fill="none" stroke="#D35D47" stroke-width="7"/></g>
  <path d="M150 780 C420 710 620 825 820 760 C1050 690 1240 820 1450 735" fill="none" stroke="#0E5C50" stroke-width="15" stroke-linecap="round" opacity="0.18"/>
</svg>
