<svg xmlns="http://www.w3.org/2000/svg" viewBox="0 0 1600 900" role="img" aria-label="ACT ART CENTER blog illustration: 그림 실력보다 표현의 과정">
  <rect width="1600" height="900" rx="64" fill="#F8F4EC"/>
  <rect x="70" y="70" width="1460" height="760" rx="72" fill="#EFE4D3"/>
  <circle cx="1245" cy="190" r="98" fill="#C8795A" opacity="0.74"/>
  <circle cx="315" cy="190" r="58" fill="#fff" opacity="0.40"/>
  <text x="145" y="120" font-family="Pretendard, Arial, sans-serif" font-size="34" font-weight="700" fill="#111" opacity="0.58">ACT ART CENTER</text>
  <circle cx="160" cy="190" r="12" fill="#0E5C50" opacity="0.20"/><circle cx="250" cy="268" r="12" fill="#0E5C50" opacity="0.20"/><circle cx="340" cy="346" r="12" fill="#0E5C50" opacity="0.20"/><circle cx="430" cy="424" r="12" fill="#0E5C50" opacity="0.20"/><circle cx="520" cy="190" r="12" fill="#0E5C50" opacity="0.20"/><circle cx="610" cy="268" r="12" fill="#0E5C50" opacity="0.20"/><circle cx="700" cy="346" r="12" fill="#0E5C50" opacity="0.20"/><circle cx="790" cy="424" r="12" fill="#0E5C50" opacity="0.20"/><circle cx="880" cy="190" r="12" fill="#0E5C50" opacity="0.20"/><circle cx="970" cy="268" r="12" fill="#0E5C50" opacity="0.20"/><circle cx="1060" cy="346" r="12" fill="#0E5C50" opacity="0.20"/><path d="M210 600 C360 520 455 655 610 575" fill="none" stroke="#C8795A" stroke-width="18" stroke-linecap="round" opacity="0.48"/><path d="M110 735 C360 660 585 805 820 720 C1045 640 1265 780 1490 700" fill="none" stroke="#0E5C50" stroke-width="16" stroke-linecap="round" opacity="0.16"/>
  <image href="/characters/acttie-reading.png" x="870" y="185" width="405" height="405" preserveAspectRatio="xMidYMid meet"/>
</svg>
