<svg xmlns="http://www.w3.org/2000/svg" viewBox="0 0 1600 900" role="img" aria-label="ACT ART CENTER blog illustration: art-therapy-not-drawing-skill">
  <rect width="1600" height="900" rx="64" fill="#F8F4EC"/>
  <rect x="70" y="70" width="1460" height="760" rx="70" fill="#EFE4D3"/>
  <circle cx="1220" cy="190" r="92" fill="#C8795A" opacity="0.75"/>
  <circle cx="340" cy="210" r="58" fill="#fff" opacity="0.42"/>
  <circle cx="180" cy="140" r="9" fill="#0E5C50" opacity="0.18"/><circle cx="300" cy="220" r="9" fill="#0E5C50" opacity="0.18"/><circle cx="420" cy="300" r="9" fill="#0E5C50" opacity="0.18"/><circle cx="540" cy="140" r="9" fill="#0E5C50" opacity="0.18"/><circle cx="660" cy="220" r="9" fill="#0E5C50" opacity="0.18"/><circle cx="780" cy="300" r="9" fill="#0E5C50" opacity="0.18"/><circle cx="900" cy="140" r="9" fill="#0E5C50" opacity="0.18"/><circle cx="1020" cy="220" r="9" fill="#0E5C50" opacity="0.18"/><circle cx="1140" cy="300" r="9" fill="#0E5C50" opacity="0.18"/><circle cx="1260" cy="140" r="9" fill="#0E5C50" opacity="0.18"/><circle cx="1380" cy="220" r="9" fill="#0E5C50" opacity="0.18"/>
<g transform="translate(800 410) scale(1.25)" stroke="#111" stroke-width="8" stroke-linecap="round" stroke-linejoin="round"><path d="M-45 -95 C-62 -66 -50 -40 -16 -34 C22 -27 58 -45 54 -76 C50 -108 -19 -124 -45 -95 Z" fill="#111" stroke="none"/><circle cx="0" cy="-68" r="43" fill="#fff"/><circle cx="-14" cy="-72" r="4" fill="#111" stroke="none"/><circle cx="17" cy="-72" r="4" fill="#111" stroke="none"/><path d="M-10 -50 C2 -42 15 -45 23 -54" fill="none" stroke-width="5"/><path d="M-52 10 Q0 -15 52 10 L67 145 Q0 170 -67 145 Z" fill="#fff"/><path d="M-46 148 L-58 290 M46 148 L58 290"/><path d="M-68 292 H-18 M18 292 H68"/><path d="M-52 35 C-120 70 -145 120 -176 175 M52 35 C118 72 145 122 176 175"/><circle cx="-185" cy="183" r="13" fill="#fff"/><circle cx="185" cy="183" r="13" fill="#fff"/></g>
  <path d="M150 780 C420 710 620 825 820 760 C1050 690 1240 820 1450 735" fill="none" stroke="#0E5C50" stroke-width="15" stroke-linecap="round" opacity="0.18"/>
</svg>
