<svg xmlns="http://www.w3.org/2000/svg" viewBox="0 0 1600 900" role="img" aria-label="ACT ART CENTER blog illustration: ACT 미술치료 이야기">
  <rect width="1600" height="900" rx="64" fill="#F8F4EC"/>
  <rect x="70" y="70" width="1460" height="760" rx="72" fill="#E8D7B8"/>
  <circle cx="1245" cy="190" r="98" fill="#0E5C50" opacity="0.74"/>
  <circle cx="315" cy="190" r="58" fill="#fff" opacity="0.40"/>
  <text x="145" y="120" font-family="Pretendard, Arial, sans-serif" font-size="34" font-weight="700" fill="#111" opacity="0.58">ACT ART CENTER</text>
  <rect x="130" y="145" width="600" height="110" rx="32" fill="#fff" opacity="0.32"/>
<rect x="175" y="180" width="90" height="38" rx="10" fill="#0E5C50" opacity="0.45"/>
<rect x="290" y="175" width="120" height="48" rx="10" fill="#D9A13B" opacity="0.75"/>
<rect x="435" y="182" width="88" height="36" rx="10" fill="#C8795A" opacity="0.65"/>
<rect x="550" y="176" width="115" height="46" rx="10" fill="#fff" opacity="0.65"/><path d="M110 735 C360 660 585 805 820 720 C1045 640 1265 780 1490 700" fill="none" stroke="#0E5C50" stroke-width="16" stroke-linecap="round" opacity="0.16"/>
  <image href="/characters/acttie-reading.png" x="230" y="210" width="370" height="370" preserveAspectRatio="xMidYMid meet"/>
  <image href="/characters/artty-paint.png" x="930" y="190" width="410" height="410" preserveAspectRatio="xMidYMid meet"/>
</svg>
