<svg xmlns="http://www.w3.org/2000/svg" viewBox="0 0 1600 900" role="img" aria-label="ACT ART CENTER blog illustration: blog-hero">
  <rect width="1600" height="900" rx="64" fill="#F8F4EC"/>
  <rect x="70" y="70" width="1460" height="760" rx="70" fill="#E8D7B8"/>
  <circle cx="1220" cy="190" r="92" fill="#0E5C50" opacity="0.75"/>
  <circle cx="340" cy="210" r="58" fill="#fff" opacity="0.42"/>
  <rect x="160" y="180" width="1280" height="70" rx="35" fill="#fff" opacity="0.28"/><path d="M160 650 H1440" stroke="#fff" stroke-width="22" opacity="0.28"/>
<g transform="translate(620 415) scale(1.04)" stroke="#111" stroke-width="8" stroke-linecap="round" stroke-linejoin="round"><path d="M-45 -95 C-62 -66 -50 -40 -16 -34 C22 -27 58 -45 54 -76 C50 -108 -19 -124 -45 -95 Z" fill="#111" stroke="none"/><circle cx="0" cy="-68" r="43" fill="#fff"/><circle cx="-14" cy="-72" r="4" fill="#111" stroke="none"/><circle cx="17" cy="-72" r="4" fill="#111" stroke="none"/><path d="M-10 -50 C2 -42 15 -45 23 -54" fill="none" stroke-width="5"/><path d="M-52 10 Q0 -15 52 10 L67 145 Q0 170 -67 145 Z" fill="#fff"/><path d="M-46 148 L-58 290 M46 148 L58 290"/><path d="M-68 292 H-18 M18 292 H68"/><path d="M-55 35 L-150 100 M55 35 L150 100"/><rect x="-115" y="75" width="230" height="135" rx="14" fill="#fff"/><path d="M-60 145 H60 M-60 175 H35" stroke-width="6"/></g>
<g transform="translate(980 415) scale(1.04)" stroke="#111" stroke-width="8" stroke-linecap="round" stroke-linejoin="round"><path d="M-58 -92 C-82 -45 -80 20 -55 58 H62 C84 5 78 -58 46 -92 C18 -124 -30 -126 -58 -92 Z" fill="#111" stroke="none"/><circle cx="0" cy="-68" r="43" fill="#fff"/><circle cx="-14" cy="-72" r="4" fill="#111" stroke="none"/><circle cx="17" cy="-72" r="4" fill="#111" stroke="none"/><path d="M-10 -50 C2 -42 15 -45 23 -54" fill="none" stroke-width="5"/><path d="M-52 10 Q0 -15 52 10 L67 145 Q0 170 -67 145 Z" fill="#fff"/><path d="M-46 148 L-58 290 M46 148 L58 290"/><path d="M-68 292 H-18 M18 292 H68"/><path d="M-55 35 L-150 100 M55 35 L150 100"/><rect x="-115" y="75" width="230" height="135" rx="14" fill="#fff"/><path d="M-60 145 H60 M-60 175 H35" stroke-width="6"/></g>
  <path d="M150 780 C420 710 620 825 820 760 C1050 690 1240 820 1450 735" fill="none" stroke="#0E5C50" stroke-width="15" stroke-linecap="round" opacity="0.18"/>
</svg>
