<svg xmlns="http://www.w3.org/2000/svg" viewBox="0 0 1600 900" role="img" aria-label="ACT ART CENTER blog illustration: 돌봄으로 지친 마음을 쉬게 하는 시간">
  <rect width="1600" height="900" rx="64" fill="#F8F4EC"/>
  <rect x="70" y="70" width="1460" height="760" rx="72" fill="#EFE1C6"/>
  <circle cx="1245" cy="190" r="98" fill="#6E8B7C" opacity="0.74"/>
  <circle cx="315" cy="190" r="58" fill="#fff" opacity="0.40"/>
  <text x="145" y="120" font-family="Pretendard, Arial, sans-serif" font-size="34" font-weight="700" fill="#111" opacity="0.58">ACT ART CENTER</text>
  <circle cx="310" cy="260" r="118" fill="#fff" opacity="0.28"/>
<path d="M255 380 H390 L360 545 H285Z" fill="#fff" opacity="0.75" stroke="#111" stroke-width="8"/>
<path d="M390 415 C465 410 460 505 370 485" fill="none" stroke="#111" stroke-width="8"/>
<path d="M285 340 C270 300 300 280 285 240 M340 340 C320 300 355 280 338 240" fill="none" stroke="#6E8B7C" stroke-width="9" stroke-linecap="round" opacity="0.7"/><path d="M110 735 C360 660 585 805 820 720 C1045 640 1265 780 1490 700" fill="none" stroke="#0E5C50" stroke-width="16" stroke-linecap="round" opacity="0.16"/>
  <image href="/characters/acttie-laptop.png" x="875" y="190" width="405" height="405" preserveAspectRatio="xMidYMid meet"/>
</svg>
