<svg xmlns="http://www.w3.org/2000/svg" viewBox="0 0 1600 900" role="img" aria-label="ACT ART CENTER blog illustration: 상실의 시간을 지나갈 때">
  <rect width="1600" height="900" rx="64" fill="#F8F4EC"/>
  <rect x="70" y="70" width="1460" height="760" rx="72" fill="#D9DFD1"/>
  <circle cx="1245" cy="190" r="98" fill="#D9A13B" opacity="0.74"/>
  <circle cx="315" cy="190" r="58" fill="#fff" opacity="0.40"/>
  <text x="145" y="120" font-family="Pretendard, Arial, sans-serif" font-size="34" font-weight="700" fill="#111" opacity="0.58">ACT ART CENTER</text>
  <path d="M0 660 C260 585 430 705 760 625 C1050 555 1270 660 1600 590 L1600 900 L0 900 Z" fill="#fff" opacity="0.30"/>
<path d="M250 265 C320 265 320 385 250 385 C180 385 180 265 250 265Z" fill="#fff" opacity="0.74" stroke="#111" stroke-width="8"/><path d="M250 303 C225 335 232 362 254 369 C282 347 274 323 250 303Z" fill="#D9A13B"/><path d="M110 735 C360 660 585 805 820 720 C1045 640 1265 780 1490 700" fill="none" stroke="#0E5C50" stroke-width="16" stroke-linecap="round" opacity="0.16"/>
  <image href="/characters/artty-thoughtful.png" x="860" y="170" width="430" height="430" preserveAspectRatio="xMidYMid meet"/>
</svg>
