<svg xmlns="http://www.w3.org/2000/svg" viewBox="0 0 1600 900" role="img" aria-label="ACT ART CENTER blog illustration: 크레이머와 나움버그의 두 시선">
  <rect width="1600" height="900" rx="64" fill="#F8F4EC"/>
  <rect x="70" y="70" width="1460" height="760" rx="72" fill="#E6DCCB"/>
  <circle cx="1245" cy="190" r="98" fill="#2F6F64" opacity="0.74"/>
  <circle cx="315" cy="190" r="58" fill="#fff" opacity="0.40"/>
  <text x="145" y="120" font-family="Pretendard, Arial, sans-serif" font-size="34" font-weight="700" fill="#111" opacity="0.58">ACT ART CENTER</text>
  <rect x="150" y="165" width="255" height="355" rx="34" fill="#fff" opacity="0.58" stroke="#111" stroke-width="8"/>
<rect x="455" y="165" width="255" height="355" rx="34" fill="#fff" opacity="0.58" stroke="#111" stroke-width="8"/>
<path d="M205 340 C250 250 320 445 365 315" fill="none" stroke="#C8795A" stroke-width="15" stroke-linecap="round" opacity="0.66"/>
<path d="M510 360 C555 295 625 285 665 230 M520 430 C585 360 650 445 690 350" fill="none" stroke="#2F6F64" stroke-width="15" stroke-linecap="round" opacity="0.66"/>
<path d="M410 345 C430 330 438 330 455 345" fill="none" stroke="#D9A13B" stroke-width="13" stroke-linecap="round" opacity="0.72"/><path d="M110 735 C360 660 585 805 820 720 C1045 640 1265 780 1490 700" fill="none" stroke="#0E5C50" stroke-width="16" stroke-linecap="round" opacity="0.16"/>
  <image href="/characters/acttie-reading.png" x="850" y="170" width="420" height="420" preserveAspectRatio="xMidYMid meet"/>
</svg>
