<svg xmlns="http://www.w3.org/2000/svg" viewBox="0 0 1600 900" role="img" aria-label="ACT ART CENTER blog illustration: 아이 그림 앞에서 건네는 말">
  <rect width="1600" height="900" rx="64" fill="#F8F4EC"/>
  <rect x="70" y="70" width="1460" height="760" rx="72" fill="#DCE7D4"/>
  <circle cx="1245" cy="190" r="98" fill="#D7A06A" opacity="0.74"/>
  <circle cx="315" cy="190" r="58" fill="#fff" opacity="0.40"/>
  <text x="145" y="120" font-family="Pretendard, Arial, sans-serif" font-size="34" font-weight="700" fill="#111" opacity="0.58">ACT ART CENTER</text>
  <path d="M190 185 H545 Q590 185 590 230 V365 Q590 410 545 410 H335 L260 478 L282 410 H190 Q145 410 145 365 V230 Q145 185 190 185Z" fill="#fff" opacity="0.72" stroke="#111" stroke-width="8"/>
<circle cx="285" cy="300" r="12" fill="#D7A06A"/><circle cx="370" cy="300" r="12" fill="#D7A06A"/><circle cx="455" cy="300" r="12" fill="#D7A06A"/><path d="M110 735 C360 660 585 805 820 720 C1045 640 1265 780 1490 700" fill="none" stroke="#0E5C50" stroke-width="16" stroke-linecap="round" opacity="0.16"/>
  <image href="/characters/artty-welcome.png" x="850" y="170" width="430" height="430" preserveAspectRatio="xMidYMid meet"/>
</svg>
