<svg xmlns="http://www.w3.org/2000/svg" viewBox="0 0 1600 900" role="img" aria-label="ACT ART CENTER blog illustration: 종이가 안전한 자리가 되는 순간">
  <rect width="1600" height="900" rx="64" fill="#F8F4EC"/>
  <rect x="70" y="70" width="1460" height="760" rx="72" fill="#E8E0D2"/>
  <circle cx="1245" cy="190" r="98" fill="#B9895B" opacity="0.74"/>
  <circle cx="315" cy="190" r="58" fill="#fff" opacity="0.40"/>
  <text x="145" y="120" font-family="Pretendard, Arial, sans-serif" font-size="34" font-weight="700" fill="#111" opacity="0.58">ACT ART CENTER</text>
  <rect x="160" y="165" width="540" height="390" rx="42" fill="#fff" opacity="0.62" stroke="#0E5C50" stroke-width="10" stroke-dasharray="26 20"/>
<path d="M430 380 C350 320 320 240 380 220 C410 210 430 245 430 275 C438 245 465 210 500 222 C565 248 520 325 430 380Z" fill="#D35D47" opacity="0.82"/><path d="M110 735 C360 660 585 805 820 720 C1045 640 1265 780 1490 700" fill="none" stroke="#0E5C50" stroke-width="16" stroke-linecap="round" opacity="0.16"/>
  <image href="/characters/acttie-reading.png" x="900" y="195" width="385" height="385" preserveAspectRatio="xMidYMid meet"/>
</svg>
