<svg xmlns="http://www.w3.org/2000/svg" viewBox="0 0 1600 900" role="img" aria-label="ACT ART CENTER blog illustration: 가치 탐색 비전 보드">
  <rect width="1600" height="900" rx="64" fill="#F8F4EC"/>
  <rect x="70" y="70" width="1460" height="760" rx="72" fill="#DDE7C8"/>
  <circle cx="1245" cy="190" r="98" fill="#C48A3A" opacity="0.74"/>
  <circle cx="315" cy="190" r="58" fill="#fff" opacity="0.40"/>
  <text x="145" y="120" font-family="Pretendard, Arial, sans-serif" font-size="34" font-weight="700" fill="#111" opacity="0.58">ACT ART CENTER</text>
  <path d="M170 165 l20 44 48 6-36 32 10 48-42-25-42 25 10-48-36-32 48-6z" fill="#fff" opacity="0.42"/><path d="M285 253 l20 44 48 6-36 32 10 48-42-25-42 25 10-48-36-32 48-6z" fill="#fff" opacity="0.42"/><path d="M400 165 l20 44 48 6-36 32 10 48-42-25-42 25 10-48-36-32 48-6z" fill="#fff" opacity="0.42"/><path d="M515 253 l20 44 48 6-36 32 10 48-42-25-42 25 10-48-36-32 48-6z" fill="#fff" opacity="0.42"/><path d="M630 165 l20 44 48 6-36 32 10 48-42-25-42 25 10-48-36-32 48-6z" fill="#fff" opacity="0.42"/><path d="M745 253 l20 44 48 6-36 32 10 48-42-25-42 25 10-48-36-32 48-6z" fill="#fff" opacity="0.42"/><path d="M860 165 l20 44 48 6-36 32 10 48-42-25-42 25 10-48-36-32 48-6z" fill="#fff" opacity="0.42"/><path d="M110 735 C360 660 585 805 820 720 C1045 640 1265 780 1490 700" fill="none" stroke="#0E5C50" stroke-width="16" stroke-linecap="round" opacity="0.16"/>
  <image href="/characters/twins-together.png" x="790" y="160" width="520" height="520" preserveAspectRatio="xMidYMid meet"/>
</svg>
